<svg xmlns="http://www.w3.org/2000/svg" width="128" height="128" viewBox="0 0 128 128" role="img" aria-label="Greentic hippo-dragon">
  <defs>
    <linearGradient id="g" x1="0" y1="0" x2="1" y2="1">
      <stop offset="0%" stop-color="#17B169"/>
      <stop offset="100%" stop-color="#22D3EE"/>
    </linearGradient>
  </defs>
  <rect width="128" height="128" rx="20" fill="#0B1221"/>
  <g transform="translate(12,10)">
    <path d="M30 70c-12-6-18-18-14-30 3-10 12-16 22-18 4-8 12-12 20-10 10 2 18 12 18 22 10 2 18 10 18 20 0 14-14 24-38 24-10 0-20-2-26-8z" fill="url(#g)" stroke="#0B1221" stroke-width="3"/>
    <circle cx="58" cy="42" r="3" fill="#0B1221"/>
    <circle cx="72" cy="44" r="3" fill="#0B1221"/>
    <path d="M48 56c6 6 20 6 26 0" fill="none" stroke="#0B1221" stroke-width="3" stroke-linecap="round"/>
    <path d="M98 34l-16-6 6 16z" fill="#17B169" stroke="#0B1221" stroke-width="3"/>
  </g>
</svg>